PathFileType	4	(X/Y/Z)	output.trc
DataRate	CameraRate	NumFrames	NumMarkers	Units	OrigDataRate	OrigDataStartFrame	OrigNumFrames
100	100	13	23	m	100	3083	6164
Frame#	Time	C7			T8			EL			EM			US			RS			AA			Fore_Clus_1			Fore_Clus_2			Fore_Clus_3			Fore_Clus_4			Hum_Clus_1			Hum_Clus_2			Hum_Clus_3			Hum_Clus_4			Thor_Clus_1			Thor_Clus_2			Thor_Clus_3			Thor_Clus_4			IJ			PX			GH			Thor_Clus_5		
		X1	Y1	Z1	X2	Y2	Z2	X3	Y3	Z3	X4	Y4	Z4	X5	Y5	Z5	X6	Y6	Z6	X7	Y7	Z7	X8	Y8	Z8	X9	Y9	Z9	X10	Y10	Z10	X11	Y11	Z11	X12	Y12	Z12	X13	Y13	Z13	X14	Y14	Z14	X15	Y15	Z15	X16	Y16	Z16	X17	Y17	Z17	X18	Y18	Z18	X19	Y19	Z19	X20	Y20	Z20	X21	Y21	Z21	X22	Y22	Z22	X23	Y23	Z23
3082	30.820000	-0.066121	1.552551	-0.034469	-0.087021	1.318814	-0.126992	-0.296487	1.151037	0.067330	-0.235781	1.133882	0.040507	-0.296500	1.121191	0.321700	-0.270564	1.176439	0.329332	-0.226191	1.468267	0.073921	-0.324675	1.133352	0.268513	-0.325125	1.137806	0.323014	-0.317991	1.164692	0.320681	-0.313247	1.176579	0.264440	-0.280921	1.255607	0.135495	-0.304843	1.265252	0.081189	-0.298288	1.328612	0.077543	-0.266196	1.327848	0.126959	0.059341	1.447201	0.078948	0.022268	1.390321	0.129508	0.021488	1.441350	0.102474	0.076478	1.398468	0.095368	0.003692	1.460534	0.046612	0.050215	1.256094	0.077458	-0.188190	1.435236	0.074164	0.014577	1.411613	0.121750
3083	30.830000	-0.065981	1.552678	-0.034338	-0.087294	1.319004	-0.126929	-0.297429	1.151524	0.067402	-0.236915	1.134256	0.040218	-0.290844	1.122210	0.322165	-0.264181	1.177205	0.329088	-0.226201	1.468646	0.074026	-0.320281	1.134579	0.269798	-0.319094	1.139047	0.324304	-0.311788	1.165893	0.321767	-0.308559	1.177868	0.265759	-0.281117	1.255889	0.135776	-0.305462	1.265745	0.081651	-0.298658	1.329062	0.078070	-0.266246	1.328144	0.127286	0.059283	1.447072	0.079005	0.022657	1.390642	0.129795	0.021408	1.441292	0.102553	0.076384	1.398333	0.095449	0.003668	1.460513	0.046717	0.049828	1.255982	0.077504	-0.188306	1.435407	0.074233	0.014444	1.411741	0.121987
3084	30.840000	-0.065817	1.552822	-0.034221	-0.087540	1.319224	-0.126907	-0.298390	1.152021	0.067530	-0.238083	1.134637	0.039966	-0.284808	1.123257	0.322550	-0.257443	1.177998	0.328696	-0.226214	1.469044	0.074077	-0.315466	1.135822	0.271134	-0.312721	1.140311	0.325564	-0.305151	1.166797	0.322625	-0.303501	1.178864	0.266382	-0.281293	1.256199	0.136084	-0.305981	1.266203	0.082113	-0.299106	1.329540	0.078698	-0.266291	1.328426	0.127642	0.059209	1.446948	0.079090	0.022803	1.390384	0.129865	0.021325	1.441234	0.102612	0.076316	1.398038	0.095420	0.003646	1.460499	0.046813	0.049424	1.255872	0.077530	-0.188432	1.435583	0.074285	0.014308	1.411667	0.122059
3085	30.850000	-0.065644	1.552970	-0.034128	-0.087766	1.319448	-0.126911	-0.299370	1.152521	0.067749	-0.239286	1.135015	0.039775	-0.278391	1.124330	0.322848	-0.250349	1.178817	0.328138	-0.226234	1.469448	0.074081	-0.310401	1.137111	0.272436	-0.305857	1.141590	0.326699	-0.298195	1.167917	0.323470	-0.298142	1.180165	0.267527	-0.281432	1.256538	0.136462	-0.306456	1.266690	0.082701	-0.299481	1.329985	0.079334	-0.266298	1.328714	0.128048	0.059122	1.446846	0.079171	0.021752	1.389798	0.129505	0.021244	1.441184	0.102669	0.076143	1.397929	0.095501	0.003619	1.460488	0.046895	0.049007	1.255764	0.077551	-0.188565	1.435759	0.074306	0.014119	1.411645	0.122152
3086	30.860000	-0.065458	1.553122	-0.034062	-0.087966	1.319678	-0.126946	-0.300348	1.153020	0.068083	-0.240510	1.135389	0.039665	-0.271588	1.125422	0.323051	-0.242915	1.179664	0.327405	-0.226261	1.469857	0.074030	-0.304992	1.138401	0.273755	-0.298698	1.142928	0.327805	-0.290935	1.169212	0.324336	-0.292435	1.181273	0.268139	-0.281535	1.256876	0.136904	-0.307010	1.267196	0.083369	-0.299890	1.330459	0.080036	-0.266281	1.329039	0.128479	0.059031	1.446747	0.079270	0.021645	1.389848	0.129644	0.021143	1.441168	0.102739	0.075921	1.397764	0.095532	0.003589	1.460480	0.046963	0.048580	1.255660	0.077564	-0.188708	1.435936	0.074304	0.013918	1.411512	0.122118
3087	30.870000	-0.065262	1.553274	-0.034025	-0.088137	1.319906	-0.127011	-0.301313	1.153511	0.068558	-0.241745	1.135756	0.039656	-0.264403	1.126529	0.323148	-0.235157	1.180537	0.326484	-0.226294	1.470268	0.073923	-0.299384	1.139761	0.274909	-0.291331	1.144377	0.328804	-0.283214	1.170710	0.325030	-0.286697	1.182598	0.269008	-0.281584	1.257253	0.137429	-0.307522	1.267704	0.084098	-0.300227	1.330947	0.080771	-0.266226	1.329384	0.128948	0.058879	1.446615	0.079301	0.021415	1.389804	0.129696	0.020994	1.441027	0.102671	0.075728	1.397594	0.095572	0.003557	1.460475	0.047014	0.048147	1.255561	0.077571	-0.188859	1.436116	0.074279	0.013723	1.411447	0.122108
3088	30.880000	-0.065067	1.553413	-0.034026	-0.088285	1.320109	-0.127091	-0.302265	1.153991	0.069206	-0.243000	1.136107	0.039765	-0.256847	1.127648	0.323125	-0.227091	1.181433	0.325356	-0.226338	1.470668	0.073768	-0.293437	1.141155	0.276003	-0.283462	1.145800	0.329648	-0.275456	1.172038	0.325338	-0.280613	1.183868	0.269729	-0.281547	1.257622	0.138025	-0.307966	1.268214	0.084955	-0.300597	1.331451	0.081615	-0.266111	1.329733	0.129461	0.059230	1.446736	0.079617	0.020997	1.389999	0.129813	0.020867	1.440986	0.102683	0.075496	1.397489	0.095689	0.003518	1.460468	0.047045	0.047714	1.255467	0.077586	-0.189015	1.436291	0.074221	0.013510	1.411440	0.122176
3089	30.890000	-0.064866	1.553543	-0.034062	-0.088401	1.320299	-0.127196	-0.303183	1.154458	0.070044	-0.244257	1.136447	0.040005	-0.248934	1.128770	0.322967	-0.218747	1.182352	0.324013	-0.226386	1.471060	0.073558	-0.287300	1.142517	0.277030	-0.275534	1.147273	0.330238	-0.267344	1.173481	0.325701	-0.274314	1.185023	0.269887	-0.281459	1.257956	0.138676	-0.308466	1.268627	0.085937	-0.300928	1.331835	0.082583	-0.265969	1.330064	0.130077	0.059092	1.446636	0.079647	0.020935	1.389919	0.129864	0.020700	1.441008	0.102740	0.075280	1.397336	0.095769	0.003477	1.460463	0.047058	0.047284	1.255379	0.077602	-0.189175	1.436467	0.074144	0.013292	1.411458	0.122190
3090	30.900000	-0.064672	1.553651	-0.034140	-0.088497	1.320449	-0.127307	-0.304072	1.154909	0.071099	-0.245533	1.136768	0.040390	-0.240687	1.129892	0.322654	-0.210149	1.183283	0.322434	-0.226445	1.471434	0.073305	-0.280842	1.143836	0.278043	-0.267089	1.148662	0.330673	-0.258951	1.174863	0.325877	-0.267873	1.186267	0.270527	-0.281307	1.258284	0.139613	-0.308861	1.269076	0.087023	-0.301291	1.332084	0.083908	-0.265735	1.330367	0.130692	0.058993	1.446547	0.079688	0.020727	1.389767	0.129828	0.020522	1.441052	0.102819	0.074993	1.397290	0.095876	0.003429	1.460454	0.047050	0.046861	1.255295	0.077634	-0.189335	1.436637	0.074034	0.013078	1.411440	0.122218
3091	30.910000	-0.064481	1.553737	-0.034256	-0.088569	1.320564	-0.127426	-0.304918	1.155344	0.072385	-0.246820	1.137072	0.040926	-0.232134	1.131003	0.322166	-0.201332	1.184221	0.320607	-0.226509	1.471789	0.073010	-0.273943	1.145054	0.278968	-0.258220	1.149967	0.331151	-0.250161	1.176351	0.326057	-0.261032	1.187414	0.270848	-0.281090	1.258616	0.140805	-0.309199	1.269469	0.088330	-0.301467	1.332504	0.084985	-0.265393	1.330639	0.131428	0.058883	1.446465	0.079717	0.020385	1.389754	0.129799	0.020459	1.440866	0.102707	0.074919	1.397222	0.096025	0.003377	1.460441	0.047023	0.046448	1.255217	0.077678	-0.189492	1.436802	0.073898	0.012882	1.411417	0.122222
3092	30.920000	-0.064296	1.553802	-0.034409	-0.088618	1.320641	-0.127550	-0.305712	1.155763	0.073915	-0.248116	1.137359	0.041619	-0.223307	1.132095	0.321480	-0.192337	1.185156	0.318521	-0.226578	1.472123	0.072678	-0.266688	1.146118	0.279865	-0.248768	1.151125	0.331310	-0.240574	1.177040	0.325592	-0.253953	1.188399	0.271074	-0.280660	1.259004	0.141606	-0.309551	1.269898	0.089842	-0.301655	1.332900	0.086224	-0.264982	1.331005	0.132339	0.058805	1.446375	0.079757	0.020132	1.389701	0.129779	0.020306	1.440853	0.102736	0.074714	1.396961	0.095977	0.003322	1.460424	0.046977	0.046048	1.255144	0.077736	-0.189644	1.436961	0.073738	0.012706	1.411395	0.122210
3093	30.930000	-0.064124	1.553836	-0.034598	-0.088656	1.320668	-0.127665	-0.306453	1.156167	0.075701	-0.249433	1.137628	0.042473	-0.214248	1.133158	0.320575	-0.183201	1.186072	0.316159	-0.226653	1.472432	0.072324	-0.258928	1.146994	0.280599	-0.238930	1.152064	0.331263	-0.232213	1.178505	0.326543	-0.246527	1.189229	0.271195	-0.280198	1.259375	0.142790	-0.309842	1.270396	0.091541	-0.301774	1.333408	0.087721	-0.264516	1.331367	0.133300	0.058696	1.446280	0.079774	0.019779	1.389861	0.129847	0.020168	1.440795	0.102737	0.074528	1.396850	0.096009	0.003263	1.460401	0.046913	0.045663	1.255075	0.077817	-0.189786	1.437108	0.073546	0.012505	1.411365	0.122195
3094	30.940000	-0.063955	1.553853	-0.034814	-0.088676	1.320666	-0.127783	-0.307118	1.156555	0.077738	-0.250752	1.137883	0.043487	-0.204998	1.134182	0.319429	-0.173976	1.186965	0.313522	-0.226726	1.472722	0.071946	-0.250945	1.147797	0.281305	-0.228646	1.152926	0.330967	-0.222000	1.179301	0.325562	-0.238846	1.189978	0.271240	-0.279631	1.259860	0.144506	-0.310109	1.270945	0.093420	-0.301833	1.333937	0.089476	-0.263833	1.331802	0.134470	0.058501	1.446151	0.079752	0.019560	1.389832	0.129840	0.020015	1.440763	0.102714	0.074380	1.396738	0.096054	0.003206	1.460374	0.046834	0.045296	1.255010	0.077906	-0.189920	1.437249	0.073337	0.012322	1.411374	0.122163
